# xmcd
#
# Track frame offsets: 
#        150
#        17892
#        36216
#        62678
#        77176
#        101865
#        116933
#        135592
#        163165
#        180536
#        200256
#        213091
#        230002
#        253844
#
# Disc length: 3725 seconds
#
# Revision: 12
# Processed by: cddbd v1.5.2PL0 Copyright (c) Steve Scherf et al.
# Submitted via: ExactAudioCopy v1.0b4
#
DISCID=c90e8b0e
DTITLE=Eric Clapton - Clapton
DYEAR=2010
DGENRE=Blues
TTITLE0=Travelin' Alone
TTITLE1=Rocking Chair
TTITLE2=River Runs Deep
TTITLE3=Judgement Day
TTITLE4=How Deep Is the Ocean
TTITLE5=My Very Good Friend the Milkman
TTITLE6=Can't Hold Out Much Longer
TTITLE7=That's No Way to Get Along
TTITLE8=Everything Will Be Alright
TTITLE9=Diamonds Made from Rain
TTITLE10=When Somebody Thinks You're Wonderful
TTITLE11=Hard Times Blues
TTITLE12=Run Back to Your Side
TTITLE13=Autumn Leaves
EXTD=
EXTT0=
EXTT1=
EXTT2=
EXTT3=
EXTT4=
EXTT5=
EXTT6=
EXTT7=
EXTT8=
EXTT9=
EXTT10=
EXTT11=
EXTT12=
EXTT13=
PLAYORDER=
